<svg xmlns="http://www.w3.org/2000/svg"
shape-rendering="geometricPrecision"
width="4000" height="4000" viewBox="0 0 699 699">
  <metadata>null</metadata>

<path d="
M 30.759 475.79
C 35.237 466.952 38.85 457.696 42.948 448.676
C 46.244 441.421 49.898 434.122 52.595 426.623
C 54.704 426.333 56.873 426.475 58.999 426.485
C 59.856 426.489 61.266 426.333 61.957 426.864
C 64.122 429.858 65.175 433.885 66.74 437.218
C 70.758 445.77 74.362 454.541 78.119 463.21
C 79.814 467.122 80.885 472.259 83.545 475.634
C 82.79 475.899 81.791 475.705 80.999 475.712
C 78.738 475.732 76.466 475.717 74.208 475.635
C 73.034 472.309 71.164 469.253 69.912 465.996
C 68.628 465.217 65.543 465.753 64.006 465.748
C 59.34 465.733 54.672 465.714 50.005 465.747
C 48.466 465.758 45.898 465.288 44.548 466.006
C 42.85 469.098 42.076 472.674 40.217 475.684
C 37.306 476.214 33.714 475.898 30.759 475.79 Z
M 48.371 457.017
C 48.137 457.775 48.221 457.382 48.126 458.197
C 54.368 458.441 60.728 457.829 66.948 458.345
C 66.564 456.835 65.691 455.4 65.121 453.947
C 62.779 447.976 59.643 442.273 57.42 436.272
C 54.085 443.002 51.282 450.093 48.371 457.017 Z"
opacity="1" fill="rgb(253,254,255)" fill-rule="evenodd" />
<path d="
M 96.525 427.626
C 96.612 427.049 96.587 427.391 96.533 426.598
C 97.261 426.137 98.253 426.268 99.093 426.283
C 101.176 426.318 103.849 425.848 105.808 426.606
C 108.636 429.041 110.566 432.876 112.665 435.935
C 116.607 441.679 120.478 447.472 124.427 453.21
C 126.385 456.055 128.173 459.249 130.598 461.732
C 130.792 461.746 130.668 460.823 130.644 460.661
C 130.495 459.669 130.417 458.707 130.426 457.703
C 130.449 455.05 130.554 452.411 130.575 449.758
C 130.637 441.944 130.889 434.063 130.426 426.259
C 133.329 426.404 136.258 426.27 139.165 426.318
C 139.489 428.313 139.232 430.481 139.232 432.502
C 139.233 436.336 139.224 440.169 139.236 444.003
C 139.27 454.535 139.695 465.146 139.285 475.67
C 136.37 475.991 133.293 475.886 130.366 475.764
C 127.684 473.153 125.667 469.369 123.528 466.293
C 119.516 460.525 115.53 454.721 111.587 448.908
C 110.008 446.582 108.435 444.247 106.865 441.916
C 106.41 441.24 106.419 439.938 105.613 439.814
C 105.539 439.803 105.44 442.284 105.437 442.604
C 105.406 445.735 105.341 448.869 105.34 452.002
C 105.337 457.336 105.317 462.67 105.308 468.004
C 105.303 470.55 105.036 473.236 105.31 475.765
C 102.716 475.971 99.032 476.374 96.512 475.763
C 96.912 471.901 96.634 467.879 96.634 463.998
C 96.634 455.665 96.639 447.332 96.621 438.999
C 96.613 435.244 96.278 431.361 96.525 427.626 Z"
opacity="1" fill="rgb(253,254,255)" fill-rule="evenodd" />
<path d="
M 154.944 448.111
C 155.65 444.706 156.158 441.598 157.951 438.518
C 164.349 427.526 177.546 423.39 189.48 426.857
C 192.308 427.678 194.912 429.015 197.25 430.806
C 198.262 431.581 199.145 432.779 200.205 433.432
C 199.446 435.722 196.463 437.696 194.939 439.501
C 193.703 438.941 192.784 437.409 191.604 436.643
C 188.844 434.853 185.721 433.947 182.45 433.733
C 179.46 433.537 176.329 433.961 173.6 435.243
C 171.288 436.33 169.405 437.98 167.778 439.93
C 166.124 441.911 164.875 444.395 164.363 446.931
C 163.156 452.91 164.487 459.152 168.783 463.63
C 175.813 470.957 189.032 470.858 195.08 462.367
C 196.52 462.993 197.968 465.061 199.106 466.156
C 199.673 466.702 200.557 467.239 200.981 467.886
C 197.596 473.573 189.722 476.372 183.475 476.784
C 178.809 477.091 174.042 476.556 169.722 474.673
C 159.537 470.233 153.649 459.018 154.944 448.111 Z"
opacity="1" fill="rgb(254,254,255)" fill-rule="evenodd" />
<path d="
M 176.839 534.203
C 178.909 531.236 180.055 527.269 181.491 523.953
C 185.108 515.602 188.258 506.95 192.339 498.814
C 193.835 498.697 197.716 498.061 198.87 499.021
C 204.756 510.31 208.735 522.807 213.826 534.485
C 213.763 534.615 212.607 534.421 212.463 534.418
C 210.808 534.376 209.13 534.422 207.476 534.473
C 206.21 532.165 205.992 529.098 204.224 527.048
C 198.387 527.267 192.465 527.13 186.626 526.988
C 184.64 528.806 184.82 532.291 183.44 534.507
C 181.375 534.928 178.834 534.558 176.718 534.589
C 176.759 534.46 176.799 534.331 176.839 534.203 Z
M 188.329 521.735
C 188.363 521.8 188.397 521.865 188.432 521.93
C 191.042 521.581 193.871 521.849 196.507 521.853
C 198.4 521.855 200.474 521.588 202.343 521.804
C 201.078 517.44 198.827 513.348 197.327 509.057
C 197.025 508.193 196.208 504.973 195.411 505.306
C 193.246 510.699 191.129 516.648 188.329 521.735 Z"
opacity="1" fill="rgb(248,248,251)" fill-rule="evenodd" />
<path d="
M 215.46 426.979
C 215.552 426.833 215.644 426.687 215.736 426.541
C 218.578 426.512 221.399 426.53 224.241 426.585
C 224.536 429.003 224.284 431.566 224.278 434.005
C 224.267 438.521 224.334 443.038 224.328 447.553
C 225.765 448.345 229.122 447.77 230.777 447.772
C 236.301 447.781 241.834 447.657 247.357 447.747
C 246.842 440.714 247.632 433.587 247.25 426.546
C 250.206 426.281 253.228 426.494 256.191 426.508
C 255.801 430.747 256.163 435.234 256.183 439.503
C 256.22 447.67 256.238 455.836 256.248 464.003
C 256.252 467.001 256.3 470.005 256.23 473.003
C 256.219 473.464 256.46 475.715 256.141 475.911
C 253.323 476.149 250.239 476.066 247.42 475.95
C 247.195 469.179 247.072 462.342 247.317 455.569
C 246.613 454.773 242.843 455.274 241.73 455.272
C 236.06 455.263 230.302 455.125 224.646 455.517
C 223.769 456.993 224.321 459.796 224.319 461.505
C 224.316 466.121 225.047 471.446 224.176 475.983
C 221.524 476.439 218.196 476.087 215.505 475.937
C 215.158 459.649 215.196 443.274 215.46 426.979 Z"
opacity="1" fill="rgb(252,253,254)" fill-rule="evenodd" />
<path d="
M 231.458 498.795
C 239.405 498.597 248.886 497.348 255.925 501.758
C 265.601 507.819 266.422 524.277 256.945 530.937
C 249.09 536.458 240.422 533.607 231.614 534.609
C 231.407 522.696 231.138 510.707 231.458 498.795 Z
M 237.404 504.343
C 237.169 510.545 237.421 516.788 237.39 522.997
C 237.383 524.484 237.401 525.971 237.367 527.457
C 237.355 527.955 237.165 528.953 237.515 529.334
C 242.672 529.348 248.846 530.306 253.148 526.775
C 258.817 522.122 259.312 511.601 253.433 506.838
C 250.314 504.311 246.547 504.167 242.716 504.026
C 241.004 503.963 239.046 503.813 237.404 504.343 Z"
opacity="1" fill="rgb(250,250,252)" fill-rule="evenodd" />
<path d="
M 268.408 200.066
C 270.304 196.14 273.646 196.258 277.498 196.257
C 283.835 196.255 290.253 195.958 296.58 196.299
C 296.635 199.085 296.549 201.877 296.566 204.665
C 296.571 205.424 296.834 206.972 296.302 207.556
C 290.701 207.556 284.79 207.178 279.229 207.831
C 279.563 242.4 279.314 277.048 279.038 311.624
C 278.933 324.848 278.976 338.096 279.047 351.319
C 279.082 357.716 278.59 364.287 279.175 370.66
C 298.549 369.875 318.106 370.624 337.499 370.567
C 346.226 370.542 354.959 370.382 363.683 370.453
C 366.643 370.478 369.817 369.962 372.739 370.249
C 374.509 371.039 375.909 372.746 377.321 374.038
C 380.112 376.592 383.78 379.042 386.094 382.013
C 376.485 382.507 366.653 381.926 357 381.921
C 337.999 381.91 318.998 382.03 299.997 382.039
C 292.861 382.043 285.728 381.952 278.597 381.933
C 275.77 381.925 272.277 382.678 269.96 380.698
C 266.914 378.095 268.063 372.584 268.066 368.999
C 268.077 358.332 268.059 347.665 268.08 336.998
C 268.141 305.832 268.099 274.666 268.167 243.5
C 268.188 233.834 268.186 224.167 268.189 214.5
C 268.19 209.898 267.462 204.575 268.408 200.066 Z"
opacity="1" fill="rgb(134,145,167)" fill-rule="evenodd" />
<path d="
M 272.49 449.124
C 272.763 445.49 273.663 442.116 275.29 438.856
C 281.226 426.959 297.503 422.311 309.408 427.55
C 315.96 430.434 320.533 435.258 323.286 441.833
C 324.816 445.487 325.075 449.79 324.808 453.702
C 324.601 456.745 323.908 459.661 322.601 462.42
C 321.339 465.082 319.572 467.454 317.452 469.494
C 304.157 482.29 280.53 477.939 273.992 460.243
C 272.705 456.761 272.212 452.822 272.49 449.124 Z
M 281.433 448.097
C 281.045 451.04 281.305 454.171 282.204 457.001
C 285.419 467.12 297.777 472.134 307.196 467.031
C 312.155 464.346 315.346 458.974 316.067 453.472
C 316.381 451.08 316.047 448.538 315.479 446.207
C 311.882 431.458 289.814 429.232 283.152 442.807
C 282.335 444.474 281.677 446.247 281.433 448.097 Z"
opacity="1" fill="rgb(254,255,255)" fill-rule="evenodd" />
<path d="
M 279.423 498.908
C 281.396 498.884 283.494 498.675 285.451 498.933
C 286.256 501.579 287.591 504.163 288.628 506.742
C 291.508 513.904 294.588 521.096 296.992 528.425
C 297.543 528.307 297.731 526.939 297.889 526.443
C 298.476 524.605 299.209 522.789 299.841 520.962
C 302.435 513.472 305.896 506.306 308.448 498.802
C 310.644 498.613 312.876 498.918 315.077 498.878
C 314.555 501.408 312.773 504.006 311.792 506.418
C 309.327 512.475 306.811 518.552 304.159 524.53
C 303.119 526.876 302.144 529.272 301.18 531.651
C 300.818 532.546 300.601 533.729 299.948 534.46
C 298.454 534.474 294.937 535.034 293.733 534.241
C 290.554 526.852 287.533 519.396 284.436 511.972
C 282.641 507.669 281.154 503.076 278.868 499.01
C 279.053 498.976 279.238 498.942 279.423 498.908 Z"
opacity="1" fill="rgb(250,250,252)" fill-rule="evenodd" />
<path d="
M 304.407 187.579
C 305.684 184.015 308.802 184.119 312.006 184.123
C 318.073 184.13 324.25 184.573 330.304 184.196
C 329.32 170.618 344.052 160.577 356.419 164.625
C 364.867 167.391 369.659 175.052 370.208 183.641
C 371.497 184.18 373.785 183.895 375.215 183.938
C 379.318 184.059 383.426 184.092 387.534 184.066
C 389.831 184.052 392.398 183.638 394.333 185.177
C 397.084 187.365 396.164 191.992 396.16 195.105
C 396.151 203.379 396.239 211.657 396.326 219.931
C 396.358 223.072 397.227 227.364 394.481 229.632
C 392.63 231.16 390.113 230.877 387.866 230.821
C 383.916 230.723 379.955 230.787 376.004 230.782
C 359.171 230.761 342.336 230.711 325.503 230.781
C 321.003 230.8 316.503 230.84 312.004 230.893
C 309.732 230.92 307.394 231.075 305.739 229.27
C 303.217 226.521 304.218 221.45 304.236 218.002
C 304.269 211.501 304.359 205.001 304.328 198.5
C 304.311 194.938 303.888 191.106 304.407 187.579 Z
M 315.57 219.137
C 315.571 219.314 315.573 219.49 315.575 219.667
C 331.712 219.847 347.861 219.668 363.999 219.668
C 371.041 219.668 378.254 219.155 385.275 219.634
C 385.052 218.982 385.26 217.966 385.217 217.272
C 385.078 214.992 385.105 212.705 384.973 210.427
C 379.122 209.727 372.895 210.264 367.005 210.267
C 355.504 210.273 344.004 210.308 332.504 210.28
C 328.337 210.269 324.171 210.289 320.004 210.32
C 318.963 210.327 316.235 209.886 315.615 210.712
C 315.562 213.519 315.636 216.33 315.57 219.137 Z
M 341.405 181.073
C 341.097 182.338 341.087 183.792 341.298 185.074
C 342.791 194.161 356.542 194.938 358.792 185.895
C 359.241 184.09 359.305 182.09 358.7 180.31
C 355.874 171.996 343.492 172.503 341.405 181.073 Z"
opacity="1" fill="rgb(252,253,255)" fill-rule="evenodd" />
<path d="
M 325.481 308.011
C 327.814 305.419 330.348 302.935 332.877 300.536
C 335.441 302.154 337.421 304.647 339.634 306.704
C 344.147 310.9 348.476 315.36 353.158 319.364
C 354.728 318.122 356.118 316.355 357.527 314.917
C 360.961 311.414 364.413 307.932 367.825 304.409
C 376.234 295.729 384.711 287.096 392.94 278.246
C 395.128 279.189 397.074 281.571 398.788 283.184
C 399.592 283.941 400.72 284.776 401.193 285.792
C 397.96 289.88 393.8 293.427 390.133 297.131
C 383.747 303.584 377.447 310.11 371.168 316.666
C 367.286 320.719 363.409 324.778 359.527 328.831
C 357.603 330.84 355.783 333.445 353.46 335.004
C 352.358 334.633 351.266 333.281 350.429 332.48
C 348.568 330.699 346.723 328.902 344.858 327.126
C 338.275 320.857 331.837 314.379 324.974 308.417
C 325.143 308.281 325.312 308.146 325.481 308.011 Z"
opacity="1" fill="rgb(253,254,255)" fill-rule="evenodd" />
<path d="
M 333.221 498.726
C 335.175 498.69 337.114 498.76 339.066 498.763
C 339.49 507.295 339.082 515.958 339.092 524.505
C 339.095 526.838 339.086 529.172 339.108 531.505
C 339.117 532.365 339.421 533.72 339.064 534.504
C 337.142 534.685 335.204 534.491 333.28 534.558
C 333.51 530.07 333.212 525.499 333.206 521.002
C 333.195 513.582 333.353 506.142 333.221 498.726 Z"
opacity="0.996" fill="rgb(247,247,249)" fill-rule="evenodd" />
<path d="
M 340.75 426.298
C 345.313 426.078 349.92 426.26 354.489 426.279
C 362.201 426.31 372.311 425.049 377.2 432.528
C 377.997 433.748 378.613 435.032 379.042 436.425
C 379.619 438.295 379.824 440.268 379.83 442.218
C 379.838 444.697 379.559 447.176 378.485 449.437
C 377.109 452.333 374.591 454.765 371.784 456.283
C 370.531 456.961 368.086 457.373 367.253 458.465
C 369.174 460.339 370.668 462.837 372.291 464.976
C 375.101 468.679 378.28 472.348 380.823 476.211
C 378.35 475.824 375.518 476.252 373.003 476.218
C 372.076 476.206 370.629 476.57 369.881 475.978
C 367.411 472.757 365.111 469.35 362.729 466.057
C 361.029 463.707 358.958 461.493 357.411 459.055
C 355.851 458.408 353.116 458.813 351.401 458.774
C 350.673 458.757 350.069 458.64 349.507 459.13
C 349.54 463.418 349.663 467.711 349.677 472.003
C 349.679 472.51 349.899 475.703 349.564 475.825
C 346.672 476.229 343.532 475.77 340.618 475.778
C 341.276 463.929 340.662 451.872 340.674 440.001
C 340.678 435.546 340.103 430.702 340.75 426.298 Z
M 349.743 434.2
C 349.566 439.857 349.692 445.541 349.725 451.201
C 350.945 451.711 353.155 451.284 354.502 451.298
C 358.441 451.338 363.647 452.241 367.156 450.018
C 371.645 447.174 372.757 439.621 368.388 436.12
C 365.237 433.594 360.895 434.059 357.115 434.071
C 354.663 434.079 352.182 433.901 349.743 434.2 Z"
opacity="1" fill="rgb(252,252,253)" fill-rule="evenodd" />
<path d="
M 358.854 528.062
C 358.847 527.956 358.84 527.85 358.833 527.744
C 360.115 526.719 361.211 525.615 362.589 524.701
C 363.676 525.098 364.452 526.423 365.294 527.192
C 366.421 528.222 367.809 528.917 369.262 529.371
C 372.216 530.294 376.087 530.514 378.882 528.957
C 381.157 527.689 382.308 524.677 380.51 522.488
C 379.088 520.757 376.707 520.22 374.651 519.63
C 369.521 518.157 362.737 516.923 361.12 510.979
C 360.77 509.691 360.684 508.359 360.79 507.031
C 361.512 498.007 373.598 496.682 380.228 499.631
C 381.98 500.411 385.126 501.862 385.928 503.766
C 385.095 504.829 383.987 505.707 383.079 506.71
C 382.869 506.941 382.557 507.469 382.222 507.498
C 379.394 504.629 375.395 502.797 371.303 503.509
C 368.537 503.991 365.923 505.776 366.411 508.934
C 366.908 512.14 371.273 512.851 373.789 513.67
C 379.959 515.677 386.542 516.981 387.108 524.693
C 387.488 529.862 382.84 533.58 378.25 534.646
C 370.921 536.347 363.445 533.998 358.854 528.062 Z"
opacity="1" fill="rgb(250,250,250)" fill-rule="evenodd" />
<path d="
M 378.449 362.079
C 382.084 359.049 385.37 355.543 388.978 352.457
C 397.929 344.797 406.812 337.05 415.704 329.32
C 420.876 324.824 426.197 319.544 432.135 316.091
C 432.717 331.535 432.246 347.048 432.284 362.503
C 432.293 366.438 432.303 370.372 432.326 374.307
C 432.337 376.084 432.552 378.097 431.369 379.575
C 429.254 382.217 425.981 381.85 422.936 381.84
C 417.29 381.821 411.644 381.86 405.998 381.882
C 403.568 381.891 400.501 382.416 398.151 381.828
C 396.576 380.606 395.269 378.948 393.833 377.562
C 390.274 374.128 386.778 370.624 383.175 367.237
C 381.521 365.682 379.925 363.733 378.036 362.484
C 378.174 362.349 378.311 362.214 378.449 362.079 Z
M 394.778 362.559
C 395.097 363.642 397.551 365.192 398.443 366.053
C 399.905 367.466 401.482 369.628 403.277 370.601
C 404.481 371.254 407.133 370.712 408.497 370.707
C 412.724 370.69 416.967 370.568 421.192 370.645
C 420.749 368.718 421.252 366.014 421.256 364.001
C 421.268 358.5 421.271 352.999 421.266 347.499
C 421.263 344.98 421.726 341.962 421.084 339.52
C 414.482 344.435 408.562 350.512 402.397 355.963
C 400.05 358.037 397.522 361.088 394.778 362.559 Z"
opacity="1" fill="rgb(133,143,166)" fill-rule="evenodd" />
<path d="
M 403.849 196.339
C 410.061 196.22 416.283 196.255 422.499 196.276
C 425.432 196.286 428.56 195.708 430.782 198
C 432.889 200.172 432.372 203.271 432.354 206.061
C 432.314 212.208 432.272 218.354 432.278 224.502
C 432.295 242.003 432.251 259.503 432.242 277.003
C 432.239 282.67 432.245 288.337 432.235 294.004
C 432.23 297.026 432.516 300.261 432.111 303.255
C 430.583 305.807 427.058 307.82 424.81 309.748
C 423.764 310.646 422.679 312.089 421.367 312.54
C 420.664 291.573 421.24 270.482 421.23 249.5
C 421.225 240.167 421.244 230.833 421.255 221.5
C 421.261 216.972 420.898 212.263 421.243 207.757
C 415.661 207.424 409.691 207.417 404.111 207.785
C 403.598 206.922 403.871 205.265 403.859 204.276
C 403.827 201.642 404.028 198.965 403.849 196.339 Z"
opacity="1" fill="rgb(133,143,165)" fill-rule="evenodd" />
<path d="
M 406.826 498.938
C 408.227 498.821 411.53 498.298 412.752 499.026
C 412.795 507.846 412.76 516.68 412.756 525.504
C 412.755 527.67 412.764 529.836 412.75 532.002
C 412.747 532.564 413.023 534.076 412.653 534.492
C 410.737 534.717 408.756 534.57 406.828 534.561
C 407.126 522.707 406.217 510.789 406.826 498.938 Z"
opacity="0.996" fill="rgb(243,243,248)" fill-rule="evenodd" />
<path d="
M 421.029 427.628
C 421.129 427.047 421.093 427.392 421.074 426.589
C 421.853 426.069 423.213 426.267 424.123 426.277
C 426.249 426.3 428.376 426.268 430.502 426.29
C 438.901 426.374 450.218 424.311 456.257 431.62
C 463.349 440.204 460.516 455.38 449.674 459.197
C 443.631 461.325 436.132 460.363 429.821 460.381
C 428.949 465.462 430.469 470.896 429.721 475.997
C 426.864 476.338 423.913 475.909 421.056 475.918
C 420.745 466.996 421.124 457.944 421.122 449
C 421.12 441.922 420.657 434.683 421.029 427.628 Z
M 429.84 434.329
C 429.707 440.373 429.326 446.68 429.8 452.707
C 434.969 452.723 442.45 453.945 447.106 451.223
C 452.43 448.11 452.618 438.256 447.015 435.378
C 442.219 432.914 435.065 434.339 429.84 434.329 Z"
opacity="1" fill="rgb(254,254,255)" fill-rule="evenodd" />
<path d="
M 434.984 500.128
C 435.096 499.526 435.052 499.882 435.057 499.055
C 436.47 498.469 439.795 498.463 441.173 499.12
C 443.185 501.22 444.706 503.866 446.387 506.237
C 449.021 509.952 451.775 513.58 454.343 517.343
C 455.619 519.214 456.903 521.09 458.235 522.922
C 458.84 523.753 459.828 524.886 460.085 525.864
C 460.426 525.633 460.134 524.577 460.077 524.241
C 459.812 522.702 459.842 521.063 459.888 519.507
C 460.017 515.164 460.091 510.813 460.115 506.468
C 460.129 503.987 459.9 501.34 460.312 498.891
C 462.125 498.736 463.937 498.906 465.751 498.852
C 465.284 501.559 465.728 504.747 465.728 507.503
C 465.728 513.503 465.704 519.502 465.703 525.502
C 465.702 528.192 466.315 531.888 465.552 534.47
C 464.177 534.769 460.897 535.044 459.659 534.328
C 454.741 528.085 450.61 521.14 445.905 514.723
C 444.692 513.07 443.437 511.431 442.283 509.738
C 441.937 509.231 441.846 508.263 441.233 508.224
C 440.759 508.194 440.827 509.099 440.759 509.57
C 440.536 511.123 440.793 512.926 440.786 514.503
C 440.756 521.046 441.568 527.937 440.876 534.439
C 438.946 534.674 436.974 534.356 435.06 534.602
C 434.745 533.52 434.962 532.135 434.97 531.015
C 434.988 528.516 434.967 526.016 434.959 523.517
C 434.934 515.851 434.179 507.75 434.984 500.128 Z"
opacity="1" fill="rgb(250,250,253)" fill-rule="evenodd" />
<path d="
M 473.466 446.599
C 473.943 443.681 475.026 440.739 476.478 438.17
C 484.137 424.623 503.533 421.772 515.838 430.686
C 520.265 433.893 523.344 438.659 524.856 443.871
C 526.001 447.817 526.201 452.366 525.517 456.412
C 525.07 459.059 524.084 461.614 522.832 463.978
C 516.483 475.97 499.76 480.322 487.731 474.674
C 481.129 471.574 476.21 465.892 474.142 458.876
C 472.999 454.998 472.815 450.577 473.466 446.599 Z
M 482.458 448.091
C 482.011 450.839 482.153 453.938 482.943 456.611
C 487.15 470.863 506.743 473.188 514.41 460.667
C 515.568 458.777 516.354 456.631 516.69 454.441
C 517.435 449.58 516.581 444.086 513.43 440.165
C 504.187 428.659 484.845 433.415 482.458 448.091 Z"
opacity="1" fill="rgb(254,254,255)" fill-rule="evenodd" />
<path d="
M 485.439 514.103
C 486.092 511.194 486.731 508.508 488.445 505.989
C 493.073 499.189 502.133 496.869 509.847 499.055
C 513.6 500.118 515.608 502.567 518.76 504.495
C 518.038 505.781 516.163 507.585 514.987 508.505
C 512.445 506.309 510.265 504.39 506.838 503.781
C 504.155 503.304 501.305 503.378 498.777 504.466
C 496.711 505.354 495.007 506.922 493.657 508.698
C 489.192 514.578 490.786 524.15 497.148 528.045
C 503.714 532.064 512.751 529.04 514.84 521.469
C 513.991 521.019 512.548 521.232 511.594 521.225
C 509.316 521.206 507.053 521.268 504.796 520.919
C 504.729 519.329 504.714 517.745 504.654 516.154
C 509.803 516.037 515.036 516.051 520.183 516.219
C 520.266 520.385 520.23 524.564 520.184 528.738
C 520.164 530.535 520.535 532.904 519.925 534.604
C 518.41 534.604 516.869 534.469 515.368 534.496
C 514.724 532.958 515.069 531.099 515.041 529.465
C 512.102 531.93 509.917 534.337 505.912 534.992
C 493.842 536.967 483.867 525.785 485.439 514.103 Z"
opacity="1" fill="rgb(249,250,252)" fill-rule="evenodd" />
<path d="
M 541.806 426.388
C 544.77 426.174 547.742 426.286 550.715 426.262
C 551.519 442.694 550.572 459.284 550.792 475.735
C 547.877 476.138 544.894 475.675 541.97 475.89
C 541.47 475.106 541.776 473.166 541.77 472.21
C 541.75 468.975 541.779 465.738 541.777 462.503
C 541.769 450.465 541.714 438.424 541.806 426.388 Z"
opacity="1" fill="rgb(253,252,254)" fill-rule="evenodd" />
<path d="
M 569.458 427.043
C 569.534 426.857 569.61 426.671 569.687 426.484
C 572.081 426.349 576.477 425.634 578.603 426.78
C 581.173 429.661 583.12 433.173 585.327 436.332
C 589.252 441.95 592.97 447.752 597.089 453.229
C 598.683 455.349 600.161 457.552 601.726 459.693
C 602.122 460.235 602.802 461.699 603.396 461.946
C 603.602 461.017 603.317 459.896 603.319 458.949
C 603.322 456.633 603.299 454.315 603.293 451.999
C 603.271 443.499 602.745 434.826 603.242 426.346
C 606.039 426.306 608.836 426.269 611.636 426.364
C 612.181 427.126 611.797 429.07 611.791 430.005
C 611.77 433.171 611.796 436.339 611.809 439.505
C 611.859 451.544 612.643 463.827 611.861 475.842
C 609.331 475.932 605.577 476.61 603.167 475.815
C 601.408 473.754 600.004 471.353 598.435 469.142
C 593.74 462.524 589.282 455.741 584.464 449.212
C 583.168 447.455 581.919 445.634 580.688 443.831
C 579.996 442.817 579.267 441.147 578.248 440.464
C 578.805 449.369 578.074 458.56 578.106 467.506
C 578.114 469.672 578.18 471.842 578.154 474.007
C 578.15 474.357 578.341 475.743 578.04 475.889
C 575.285 475.843 572.362 475.692 569.626 475.94
C 569.248 474.286 569.456 472.205 569.44 470.507
C 569.403 466.841 569.403 463.175 569.4 459.509
C 569.391 448.696 569.204 437.85 569.458 427.043 Z"
opacity="1" fill="rgb(252,252,254)" fill-rule="evenodd" />
<path d="
M 626.491 426.331
C 636.381 426.947 646.575 426.236 656.501 426.257
C 660.071 426.265 663.956 425.848 667.488 426.356
C 667.772 428.196 667.438 430.233 667.556 432.113
C 667.599 432.798 667.768 433.926 667.271 434.452
C 663.858 434.323 660.423 434.382 657.007 434.402
C 655.296 434.412 653.337 434.134 651.705 434.71
C 651.393 448.334 651.168 462.247 651.752 475.859
C 648.81 476.105 645.829 475.723 642.886 475.902
C 642.549 474.801 642.875 473.182 642.893 472.011
C 642.937 469.18 642.929 466.347 642.93 463.515
C 642.932 453.835 642.934 444.15 642.901 434.472
C 637.699 434.174 631.98 433.971 626.797 434.525
C 626.115 432.045 626.655 428.923 626.491 426.331 Z"
opacity="1" fill="rgb(253,254,254)" fill-rule="evenodd" />

</svg>